<svg width="689.0450439453125px" height="120.8px" xmlns="http://www.w3.org/2000/svg" viewBox="-94.52252197265625 14.600000000000001 689.0450439453125 120.8" style="background: rgba(0, 0, 0, 0);" preserveAspectRatio="xMidYMid"><defs><filter id="editing-extrude-glow"><feFlood flood-color="#333333" result="flood-1"></feFlood><feMorphology operator="erode" radius="1" in="SourceAlpha" result="erode"></feMorphology><feComposite operator="in" in="flood-1" in2="erode" result="comp1"></feComposite><feConvolveMatrix order="3,3" divisor="1" in="comp1" result="convolve" kernelMatrix="0 0 0 1 1 1 0 0 0"></feConvolveMatrix><feOffset dx="-3" dy="0" in="convolve" result="extrude"></feOffset><feComposite operator="in" in="flood-1" in2="extrude" result="comp-extrude"></feComposite><feFlood flood-color="#333333" result="flood-2"></feFlood><feComposite operator="in" in="flood-2" in2="SourceAlpha" result="comp2"></feComposite><feMorphology operator="dilate" radius="1" in="comp2" result="dilate"></feMorphology><feOffset dx="-4.5" dy="0" in="dilate" result="offset"></feOffset><feGaussianBlur in="offset" stdDeviation="5.8" result="blur"></feGaussianBlur><feComponentTransfer in="blur" result="shadow"><feFuncA type="linear" slope="0.8" intercept="-0.2"></feFuncA></feComponentTransfer><feMerge><feMergeNode in="shadow"></feMergeNode><feMergeNode in="comp-extrude"></feMergeNode><feMergeNode in="SourceGraphic"></feMergeNode></feMerge></filter></defs><g filter="url(#editing-extrude-glow)"><g transform="translate(6.982372403144836, 104.1200008392334)"><path d="M29.18 1.28L29.18 1.28L29.18 1.28Q20.99 1.28 20.22-10.37L20.22-10.37L9.22-10.37L9.22-10.37Q7.94-7.42 7.04-4.86L7.04-4.86L5.38 0L-3.58 0L16.58-42.24L30.34-42.24L33.02-11.14L33.02-11.14Q33.66-4.42 36.22-2.43L36.22-2.43L36.22-2.43Q34.37 1.28 29.18 1.28ZM14.72-23.17L11.20-15.04L20.03-15.04L19.26-31.49L19.26-33.22L14.72-23.17ZM55.23-3.52L55.23-3.52L55.23-3.52Q53.25 1.28 46.91 1.28L46.91 1.28L46.91 1.28Q43.71 1.28 41.66-0.96L41.66-0.96L41.66-0.96Q40-2.82 40-4.93L40-4.93L40-4.93Q40-9.73 42.24-20.22L42.24-20.22L46.91-44.80L59.90-46.08L53.70-13.70L53.70-13.70Q52.61-8.96 52.61-7.30L52.61-7.30L52.61-7.30Q52.61-3.65 55.23-3.52ZM63.46-1.92L63.46-1.92L63.46-1.92Q61.95-3.58 61.28-6.21L61.28-6.21L61.28-6.21Q60.61-8.83 60.61-13.12L60.61-13.12L60.61-13.12Q60.61-17.41 62.08-21.31L62.08-21.31L62.08-21.31Q63.55-25.22 66.24-28.03L66.24-28.03L66.24-28.03Q71.74-33.92 80.83-33.92L80.83-33.92L80.83-33.92Q84.10-33.92 86.46-32.83L86.46-32.83L97.41-33.92L92.67-8.96L92.67-8.96Q92.48-8.19 92.48-6.78L92.48-6.78L92.48-6.78Q92.48-5.38 93.34-4.48L93.34-4.48L93.34-4.48Q94.21-3.58 95.49-3.46L95.49-3.46L95.49-3.46Q94.85-1.28 92.51 0L92.51 0L92.51 0Q90.18 1.28 87.55 1.28L87.55 1.28L87.55 1.28Q84.93 1.28 83.17 0.29L83.17 0.29L83.17 0.29Q81.41-0.70 80.90-2.37L80.90-2.37L80.90-2.37Q79.87-0.77 77.70 0.26L77.70 0.26L77.70 0.26Q75.52 1.28 72.61 1.28L72.61 1.28L72.61 1.28Q69.70 1.28 67.33 0.51L67.33 0.51L67.33 0.51Q64.96-0.26 63.46-1.92ZM76.96-27.90L76.96-27.90L76.96-27.90Q76.22-26.75 75.58-24.80L75.58-24.80L75.58-24.80Q74.94-22.85 73.89-17.63L73.89-17.63L73.89-17.63Q72.83-12.42 72.83-8.70L72.83-8.70L72.83-8.70Q72.83-4.99 73.41-3.90L73.41-3.90L73.41-3.90Q73.98-2.82 75.01-2.82L75.01-2.82L75.01-2.82Q77.06-2.82 78.56-4.77L78.56-4.77L78.56-4.77Q80.06-6.72 80.64-10.18L80.64-10.18L84.03-28.93L84.03-28.93Q82.69-30.08 81.12-30.08L81.12-30.08L81.12-30.08Q79.55-30.08 78.62-29.57L78.62-29.57L78.62-29.57Q77.70-29.06 76.96-27.90ZM146.94 1.28L146.94 1.28L146.94 1.28Q139.20 1.28 139.20-4.74L139.20-4.74L139.20-4.74Q139.20-7.36 140.32-12.45L140.32-12.45L140.32-12.45Q141.44-17.54 141.82-19.58L141.82-19.58L141.82-19.58Q142.72-24.26 142.72-25.73L142.72-25.73L142.72-25.73Q142.72-28.99 140.29-28.99L140.29-28.99L140.29-28.99Q138.69-28.99 137.15-26.78L137.15-26.78L137.15-26.78Q135.62-24.58 134.91-20.16L134.91-20.16L130.94 0L118.46 1.28L121.92-16.13L121.92-16.13Q122.50-19.01 123.01-22.27L123.01-22.27L123.01-22.27Q123.52-25.54 123.52-26.05L123.52-26.05L123.52-26.05Q123.52-28.99 121.34-28.99L121.34-28.99L121.34-28.99Q119.87-28.99 118.27-26.82L118.27-26.82L118.27-26.82Q116.67-24.64 115.78-20.16L115.78-20.16L111.87 0L99.26 1.28L105.98-32.64L116.42-33.92L115.33-27.46L115.33-27.46Q116.99-30.91 120.06-32.42L120.06-32.42L120.06-32.42Q123.14-33.92 127.94-33.92L127.94-33.92L127.94-33.92Q130.69-33.92 132.48-32.58L132.48-32.58L132.48-32.58Q134.27-31.23 134.85-29.06L134.85-29.06L134.85-29.06Q135.94-31.30 138.72-32.61L138.72-32.61L138.72-32.61Q141.50-33.92 144.93-33.92L144.93-33.92L144.93-33.92Q148.35-33.92 150.05-33.18L150.05-33.18L150.05-33.18Q151.74-32.45 152.77-31.23L152.77-31.23L152.77-31.23Q154.50-28.99 154.50-24.90L154.50-24.90L154.50-24.90Q154.50-20.86 152.77-12.48L152.77-12.48L152.77-12.48Q151.87-8.38 151.87-6.88L151.87-6.88L151.87-6.88Q151.87-5.38 152.74-4.48L152.74-4.48L152.74-4.48Q153.60-3.58 154.88-3.46L154.88-3.46L154.88-3.46Q154.24-1.28 152.03 0L152.03 0L152.03 0Q149.82 1.28 146.94 1.28ZM176.32-30.34L176.32-30.34L176.32-30.34Q179.78-33.92 187.07-33.92L187.07-33.92L187.07-33.92Q191.10-33.92 193.31-31.78L193.31-31.78L193.31-31.78Q195.52-29.63 195.52-25.70L195.52-25.70L195.52-25.70Q195.52-21.76 193.31-18.98L193.31-18.98L193.31-18.98Q191.10-16.19 187.01-15.04L187.01-15.04L187.01-15.04Q187.33-13.76 187.78-12.42L187.78-12.42L188.67-9.86L188.67-9.86Q189.89-6.59 190.85-5.44L190.85-5.44L190.85-5.44Q191.81-4.29 193.09-3.90L193.09-3.90L193.09-3.90Q192.38-1.28 189.82 0.13L189.82 0.13L189.82 0.13Q187.78 1.28 184.96 1.28L184.96 1.28L184.96 1.28Q176.70 1.28 175.62-11.46L175.62-11.46L175.62-11.46Q175.42-13.25 175.42-15.04L175.42-15.04L175.42-15.04Q178.62-15.94 180.86-18.94L180.86-18.94L180.86-18.94Q183.10-21.95 183.10-25.47L183.10-25.47L183.10-25.47Q183.10-28.99 180.61-28.99L180.61-28.99L180.61-28.99Q178.82-28.99 177.41-27.01L177.41-27.01L177.41-27.01Q176.00-25.02 175.36-21.63L175.36-21.63L171.14 0L158.21 1.28L167.17-44.80L180.03-46.08L178.56-38.46L178.56-38.46Q177.60-33.09 176.32-30.34ZM218.50-17.98L218.50-17.98L218.50-17.98Q220.80-22.08 220.80-26.24L220.80-26.24L220.80-26.24Q220.80-28.99 218.82-28.99L218.82-28.99L218.82-28.99Q217.28-28.99 215.68-26.37L215.68-26.37L215.68-26.37Q214.02-23.74 213.50-20.35L213.50-20.35L210.18 0L196.93 1.28L203.46-32.64L214.02-33.92L212.86-27.46L212.86-27.46Q216.00-33.92 223.04-33.92L223.04-33.92L223.04-33.92Q226.75-33.92 228.77-32L228.77-32L228.77-32Q230.78-30.08 230.78-26.14L230.78-26.14L230.78-26.14Q230.78-22.21 228.19-19.71L228.19-19.71L228.19-19.71Q225.60-17.22 221.18-17.22L221.18-17.22L221.18-17.22Q219.26-17.22 218.50-17.98ZM247.17-3.52L247.17-3.52L247.17-3.52Q245.18 1.28 238.85 1.28L238.85 1.28L238.85 1.28Q235.58 1.28 233.54-0.96L233.54-0.96L233.54-0.96Q231.81-2.94 231.81-4.93L231.81-4.93L231.81-4.93Q231.81-10.11 234.18-20.22L234.18-20.22L236.54-32.64L249.54-33.92L245.63-13.70L245.63-13.70Q244.54-8.96 244.54-7.30L244.54-7.30L244.54-7.30Q244.54-3.65 247.17-3.52ZM237.70-41.54L237.70-41.54L237.70-41.54Q237.70-44.03 239.78-45.38L239.78-45.38L239.78-45.38Q241.86-46.72 244.86-46.72L244.86-46.72L244.86-46.72Q247.87-46.72 249.70-45.38L249.70-45.38L249.70-45.38Q251.52-44.03 251.52-41.54L251.52-41.54L251.52-41.54Q251.52-39.04 249.50-37.76L249.50-37.76L249.50-37.76Q247.49-36.48 244.48-36.48L244.48-36.48L244.48-36.48Q241.47-36.48 239.58-37.76L239.58-37.76L239.58-37.76Q237.70-39.04 237.70-41.54ZM253.63-6.40L253.63-6.40L253.63-6.40Q253.63-8.13 254.53-12.48L254.53-12.48L257.92-29.76L254.14-29.76L254.40-31.68L254.40-31.68Q262.08-33.98 269.50-39.62L269.50-39.62L272.58-39.62L271.04-32.64L276.03-32.64L275.46-29.76L270.53-29.76L267.26-12.48L267.26-12.48Q266.43-8.51 266.43-7.17L266.43-7.17L266.43-7.17Q266.43-4.10 269.12-3.46L269.12-3.46L269.12-3.46Q268.48-1.28 266.18 0L266.18 0L266.18 0Q263.87 1.28 260.61 1.28L260.61 1.28L260.61 1.28Q257.34 1.28 255.49-0.77L255.49-0.77L255.49-0.77Q253.63-2.82 253.63-6.40ZM307.90-7.10L307.90-7.10L307.90-7.10Q307.90-4.29 310.78-3.46L310.78-3.46L310.78-3.46Q310.08-1.09 307.33 0.19L307.33 0.19L307.33 0.19Q305.02 1.28 302.50 1.28L302.50 1.28L302.50 1.28Q299.97 1.28 298.66 0.61L298.66 0.61L298.66 0.61Q297.34-0.06 296.64-1.15L296.64-1.15L296.64-1.15Q295.49-2.82 295.49-5.95L295.49-5.95L295.49-5.95Q295.49-7.81 296.51-12.93L296.51-12.93L297.41-17.79L297.41-17.79Q298.50-23.36 298.50-25.41L298.50-25.41L298.50-25.41Q298.50-28.99 296.51-28.99L296.51-28.99L296.51-28.99Q294.02-28.99 292.42-25.34L292.42-25.34L292.42-25.34Q291.78-23.94 291.33-21.82L291.33-21.82L286.98 0L274.11 1.28L283.14-44.80L296-46.08L295.49-43.52L295.49-43.52Q293.70-33.66 292.16-30.34L292.16-30.34L292.16-30.34Q295.74-33.92 302.34-33.92L302.34-33.92L302.34-33.92Q309.31-33.92 310.59-29.31L310.59-29.31L310.59-29.31Q311.04-27.84 311.04-26.56L311.04-26.56L311.04-26.56Q311.04-25.28 310.94-24.29L310.94-24.29L310.94-24.29Q310.85-23.30 310.53-21.50L310.53-21.50L309.70-16.90L308.22-9.66L308.22-9.66Q307.90-8.19 307.90-7.10ZM318.75-1.92L318.75-1.92L318.75-1.92Q317.25-3.58 316.58-6.21L316.58-6.21L316.58-6.21Q315.90-8.83 315.90-13.12L315.90-13.12L315.90-13.12Q315.90-17.41 317.38-21.31L317.38-21.31L317.38-21.31Q318.85-25.22 321.54-28.03L321.54-28.03L321.54-28.03Q327.04-33.92 336.13-33.92L336.13-33.92L336.13-33.92Q339.39-33.92 341.76-32.83L341.76-32.83L352.70-33.92L347.97-8.96L347.97-8.96Q347.78-8.19 347.78-6.78L347.78-6.78L347.78-6.78Q347.78-5.38 348.64-4.48L348.64-4.48L348.64-4.48Q349.50-3.58 350.78-3.46L350.78-3.46L350.78-3.46Q350.14-1.28 347.81 0L347.81 0L347.81 0Q345.47 1.28 342.85 1.28L342.85 1.28L342.85 1.28Q340.22 1.28 338.46 0.29L338.46 0.29L338.46 0.29Q336.70-0.70 336.19-2.37L336.19-2.37L336.19-2.37Q335.17-0.77 332.99 0.26L332.99 0.26L332.99 0.26Q330.82 1.28 327.90 1.28L327.90 1.28L327.90 1.28Q324.99 1.28 322.62 0.51L322.62 0.51L322.62 0.51Q320.26-0.26 318.75-1.92ZM332.26-27.90L332.26-27.90L332.26-27.90Q331.52-26.75 330.88-24.80L330.88-24.80L330.88-24.80Q330.24-22.85 329.18-17.63L329.18-17.63L329.18-17.63Q328.13-12.42 328.13-8.70L328.13-8.70L328.13-8.70Q328.13-4.99 328.70-3.90L328.70-3.90L328.70-3.90Q329.28-2.82 330.30-2.82L330.30-2.82L330.30-2.82Q332.35-2.82 333.86-4.77L333.86-4.77L333.86-4.77Q335.36-6.72 335.94-10.18L335.94-10.18L339.33-28.93L339.33-28.93Q337.98-30.08 336.42-30.08L336.42-30.08L336.42-30.08Q334.85-30.08 333.92-29.57L333.92-29.57L333.92-29.57Q332.99-29.06 332.26-27.90ZM394.30-29.57L394.30-29.57L394.30-29.57Q395.26-31.49 395.26-33.28L395.26-33.28L395.26-33.28Q395.26-35.07 395.07-36.06L395.07-36.06L395.07-36.06Q394.88-37.06 394.43-37.82L394.43-37.82L394.43-37.82Q393.47-39.49 391.55-39.49L391.55-39.49L391.55-39.49Q389.18-39.49 387.26-37.76L387.26-37.76L387.26-37.76Q385.22-35.97 385.22-33.15L385.22-33.15L385.22-33.15Q385.22-31.36 386.46-29.98L386.46-29.98L386.46-29.98Q387.71-28.61 389.63-27.33L389.63-27.33L389.63-27.33Q391.55-26.05 393.73-24.77L393.73-24.77L393.73-24.77Q395.90-23.49 397.82-21.95L397.82-21.95L397.82-21.95Q402.24-18.43 402.24-13.70L402.24-13.70L402.24-13.70Q402.24-10.50 400.54-7.78L400.54-7.78L400.54-7.78Q398.85-5.06 396.03-3.07L396.03-3.07L396.03-3.07Q389.89 1.28 381.76 1.28L381.76 1.28L381.76 1.28Q375.17 1.28 371.78-0.86L371.78-0.86L371.78-0.86Q368.38-3.01 368.38-6.27L368.38-6.27L368.38-6.27Q368.38-12.10 372.93-13.57L372.93-13.57L372.93-13.57Q374.21-14.02 376.16-14.02L376.16-14.02L376.16-14.02Q378.11-14.02 380.35-13.18L380.35-13.18L380.35-13.18Q379.33-10.56 379.33-8.19L379.33-8.19L379.33-8.19Q379.33-3.07 382.98-3.07L382.98-3.07L382.98-3.07Q385.34-3.07 387.30-4.80L387.30-4.80L387.30-4.80Q389.25-6.53 389.25-8.48L389.25-8.48L389.25-8.48Q389.25-10.43 388-11.84L388-11.84L388-11.84Q386.75-13.25 384.90-14.37L384.90-14.37L384.90-14.37Q383.04-15.49 380.90-16.58L380.90-16.58L380.90-16.58Q378.75-17.66 376.90-19.20L376.90-19.20L376.90-19.20Q372.54-22.72 372.54-28.35L372.54-28.35L372.54-28.35Q372.54-32 374.34-34.85L374.34-34.85L374.34-34.85Q376.13-37.70 379.01-39.62L379.01-39.62L379.01-39.62Q384.77-43.52 391.84-43.52L391.84-43.52L391.84-43.52Q398.91-43.52 402.34-41.41L402.34-41.41L402.34-41.41Q405.76-39.30 405.76-35.71L405.76-35.71L405.76-35.71Q405.76-32.58 403.33-30.59L403.33-30.59L403.33-30.59Q401.22-28.93 398.66-28.93L398.66-28.93L398.66-28.93Q396.10-28.93 394.30-29.57ZM422.46-3.52L422.46-3.52L422.46-3.52Q420.48 1.28 414.14 1.28L414.14 1.28L414.14 1.28Q410.88 1.28 408.83-0.96L408.83-0.96L408.83-0.96Q407.10-2.94 407.10-4.93L407.10-4.93L407.10-4.93Q407.10-10.11 409.47-20.22L409.47-20.22L411.84-32.64L424.83-33.92L420.93-13.70L420.93-13.70Q419.84-8.96 419.84-7.30L419.84-7.30L419.84-7.30Q419.84-3.65 422.46-3.52ZM412.99-41.54L412.99-41.54L412.99-41.54Q412.99-44.03 415.07-45.38L415.07-45.38L415.07-45.38Q417.15-46.72 420.16-46.72L420.16-46.72L420.16-46.72Q423.17-46.72 424.99-45.38L424.99-45.38L424.99-45.38Q426.82-44.03 426.82-41.54L426.82-41.54L426.82-41.54Q426.82-39.04 424.80-37.76L424.80-37.76L424.80-37.76Q422.78-36.48 419.78-36.48L419.78-36.48L419.78-36.48Q416.77-36.48 414.88-37.76L414.88-37.76L414.88-37.76Q412.99-39.04 412.99-41.54ZM419.01 7.62L419.01 7.62L419.01 7.62Q422.34 7.36 424.77 3.20L424.77 3.20L424.77 3.20Q426.62 0 427.84-5.89L427.84-5.89L433.02-32.64L445.89-33.92L440.45-5.89L440.45-5.89Q438.34 4.80 435.07 8.32L435.07 8.32L435.07 8.32Q433.34 10.24 431.10 10.88L431.10 10.88L431.10 10.88Q428.86 11.52 426.30 11.52L426.30 11.52L426.30 11.52Q420.93 11.52 419.01 7.62ZM434.05-41.54L434.05-41.54L434.05-41.54Q434.05-44.03 436.13-45.38L436.13-45.38L436.13-45.38Q438.21-46.72 441.22-46.72L441.22-46.72L441.22-46.72Q444.22-46.72 446.05-45.38L446.05-45.38L446.05-45.38Q447.87-44.03 447.87-41.54L447.87-41.54L447.87-41.54Q447.87-39.04 445.86-37.76L445.86-37.76L445.86-37.76Q443.84-36.48 440.83-36.48L440.83-36.48L440.83-36.48Q437.82-36.48 435.94-37.76L435.94-37.76L435.94-37.76Q434.05-39.04 434.05-41.54ZM468.74-2.69L468.74-2.69L468.74-2.69Q465.66 1.28 458.05 1.28L458.05 1.28L458.05 1.28Q454.08 1.28 451.20-1.12L451.20-1.12L451.20-1.12Q448.32-3.52 448.32-6.98L448.32-6.98L448.32-6.98Q448.32-8.90 448.51-9.86L448.51-9.86L452.80-32.64L465.79-33.92L461.12-9.22L461.12-9.22Q460.86-7.81 460.86-6.98L460.86-6.98L460.86-6.98Q460.86-3.26 463.10-3.26L463.10-3.26L463.10-3.26Q465.60-3.26 467.39-6.66L467.39-6.66L467.39-6.66Q467.97-7.74 468.22-9.15L468.22-9.15L472.77-32.64L485.38-33.92L480.64-8.96L480.64-8.96Q480.45-8 480.45-6.98L480.45-6.98L480.45-6.98Q480.45-5.95 481.02-4.83L481.02-4.83L481.02-4.83Q481.60-3.71 483.46-3.46L483.46-3.46L483.46-3.46Q483.07-1.92 481.73-0.90L481.73-0.90L481.73-0.90Q478.91 1.28 475.87 1.28L475.87 1.28L475.87 1.28Q472.83 1.28 471.04 0.19L471.04 0.19L471.04 0.19Q469.25-0.90 468.74-2.69Z" fill="#ff6200"></path></g></g><style>text {
  font-size: 64px;
  font-family: Arial Black;
  dominant-baseline: central;
  text-anchor: middle;
}</style></svg>