<svg width="750.050146484375px" height="137.1199981689453px" xmlns="http://www.w3.org/2000/svg" viewBox="-125.02507324218749 6.440000915527349 750.050146484375 137.1199981689453" style="background: rgba(0, 0, 0, 0);" preserveAspectRatio="xMidYMid"><defs><linearGradient id="editing-outline-gradient" x1="1.4271838545667874" x2="-0.4271838545667874" y1="0.874606593415912" y2="0.12539340658408799"><stop offset="0" stop-color="#ee4208"></stop><stop offset="1" stop-color="#4139ff"></stop></linearGradient><filter id="editing-outline" x="-100%" y="-100%" width="300%" height="300%"><feMorphology in="SourceGraphic" operator="dilate" radius="3" result="outline"></feMorphology><feComposite operator="out" in="outline" in2="SourceAlpha"></feComposite></filter></defs><g filter="url(#editing-outline)"><g transform="translate(-16.78495281934738, 104.95000267028809)"><path d="M49.22 0L34.24 0L32.38-6.21L16.96-6.21L15.10 0L0.64 0L16.70-44.03L33.15-44.03L49.22 0ZM24.58-31.74L19.90-16.06L29.44-16.06L24.83-31.74L24.58-31.74ZM66.82 0L54.08 0L54.08-46.40L66.82-46.40L66.82 0ZM91.65-34.56L91.65-34.56Q99.39-34.56 104.26-31.97L104.26-31.97L104.26-31.97Q109.12-29.38 109.12-23.55L109.12-23.55L109.12-10.37L109.12-10.37Q109.12-9.28 109.63-8.58L109.63-8.58L109.63-8.58Q110.14-7.87 111.17-7.87L111.17-7.87L113.47-7.87L113.47-0.51L113.47-0.51Q113.28-0.38 112.48-0.10L112.48-0.10L112.48-0.10Q111.68 0.19 110.21 0.48L110.21 0.48L110.21 0.48Q108.74 0.77 106.82 0.77L106.82 0.77L106.82 0.77Q103.10 0.77 100.70-0.35L100.70-0.35L100.70-0.35Q98.30-1.47 97.41-3.46L97.41-3.46L97.41-3.46Q94.98-1.54 91.97-0.38L91.97-0.38L91.97-0.38Q88.96 0.77 84.93 0.77L84.93 0.77L84.93 0.77Q73.02 0.77 73.02-8.70L73.02-8.70L73.02-8.70Q73.02-13.63 75.68-16.22L75.68-16.22L75.68-16.22Q78.34-18.82 83.33-19.78L83.33-19.78L83.33-19.78Q88.32-20.74 96.38-20.74L96.38-20.74L96.38-22.40L96.38-22.40Q96.38-24.38 95.01-25.41L95.01-25.41L95.01-25.41Q93.63-26.43 91.46-26.43L91.46-26.43L91.46-26.43Q89.47-26.43 88.03-25.73L88.03-25.73L88.03-25.73Q86.59-25.02 86.59-23.49L86.59-23.49L86.59-23.23L74.05-23.23L74.05-23.23Q73.98-23.55 73.98-24.13L73.98-24.13L73.98-24.13Q73.98-28.93 78.56-31.74L78.56-31.74L78.56-31.74Q83.14-34.56 91.65-34.56L91.65-34.56ZM96.38-14.72L96.38-14.72Q90.94-14.72 88.35-13.54L88.35-13.54L88.35-13.54Q85.76-12.35 85.76-10.37L85.76-10.37L85.76-10.37Q85.76-7.17 90.11-7.17L90.11-7.17L90.11-7.17Q92.61-7.17 94.50-8.51L94.50-8.51L94.50-8.51Q96.38-9.86 96.38-11.84L96.38-11.84L96.38-14.72ZM162.50-34.56L162.50-34.56Q168.26-34.56 171.14-31.26L171.14-31.26L171.14-31.26Q174.02-27.97 174.02-21.89L174.02-21.89L174.02 0L161.28 0L161.28-20.35L161.28-20.35Q161.28-22.53 160.22-23.84L160.22-23.84L160.22-23.84Q159.17-25.15 157.25-25.15L157.25-25.15L157.25-25.15Q155.01-25.15 153.60-23.62L153.60-23.62L153.60-23.62Q152.19-22.08 152.19-19.84L152.19-19.84L152.19 0L139.46 0L139.46-20.35L139.46-20.35Q139.46-22.53 138.40-23.84L138.40-23.84L138.40-23.84Q137.34-25.15 135.42-25.15L135.42-25.15L135.42-25.15Q133.18-25.15 131.78-23.62L131.78-23.62L131.78-23.62Q130.37-22.08 130.37-19.84L130.37-19.84L130.37 0L117.63 0L117.63-33.79L128.06-33.79L128.90-28.74L128.90-28.74Q130.82-31.42 133.98-32.99L133.98-32.99L133.98-32.99Q137.15-34.56 140.67-34.56L140.67-34.56L140.67-34.56Q148.29-34.56 150.91-28.74L150.91-28.74L150.91-28.74Q152.90-31.42 156-32.99L156-32.99L156-32.99Q159.10-34.56 162.50-34.56L162.50-34.56ZM194.37-20.86L205.18-33.79L220.03-33.79L207.55-20.16L220.35 0L205.89 0L198.78-11.58L194.37-7.30L194.37 0L181.63 0L181.63-46.46L194.37-46.46L194.37-20.86ZM244.86-34.62L244.86-34.62Q246.34-34.62 247.49-34.27L247.49-34.27L247.49-34.27Q248.64-33.92 248.64-33.86L248.64-33.86L248.64-23.17L244.54-23.17L244.54-23.17Q240.58-23.17 238.82-21.12L238.82-21.12L238.82-21.12Q237.06-19.07 237.06-15.04L237.06-15.04L237.06 0L224.32 0L224.32-33.79L234.75-33.79L235.58-28.67L235.58-28.67Q236.74-31.62 239.23-33.12L239.23-33.12L239.23-33.12Q241.73-34.62 244.86-34.62L244.86-34.62ZM265.92-37.76L253.18-37.76L253.18-46.40L265.92-46.40L265.92-37.76ZM265.92 0L253.18 0L253.18-33.79L265.92-33.79L265.92 0ZM289.41-33.79L296.58-33.79L296.58-25.15L289.41-25.15L289.41-12.29L289.41-12.29Q289.41-9.98 290.18-8.93L290.18-8.93L290.18-8.93Q290.94-7.87 292.99-7.87L292.99-7.87L296.58-7.87L296.58-0.38L296.58-0.38Q295.04 0.13 292.61 0.45L292.61 0.45L292.61 0.45Q290.18 0.77 288.38 0.77L288.38 0.77L288.38 0.77Q282.75 0.77 279.71-1.28L279.71-1.28L279.71-1.28Q276.67-3.33 276.67-8.26L276.67-8.26L276.67-25.15L271.94-25.15L271.94-33.79L277.18-33.79L279.94-44.03L289.41-44.03L289.41-33.79ZM315.20-30.27L315.20-30.27Q317.25-32.32 320-33.44L320-33.44L320-33.44Q322.75-34.56 325.76-34.56L325.76-34.56L325.76-34.56Q331.65-34.56 334.59-31.30L334.59-31.30L334.59-31.30Q337.54-28.03 337.54-21.89L337.54-21.89L337.54 0L324.80 0L324.80-20.35L324.80-20.35Q324.80-22.53 323.68-23.84L323.68-23.84L323.68-23.84Q322.56-25.15 320.51-25.15L320.51-25.15L320.51-25.15Q318.14-25.15 316.67-23.62L316.67-23.62L316.67-23.62Q315.20-22.08 315.20-19.84L315.20-19.84L315.20 0L302.46 0L302.46-46.40L315.20-46.40L315.20-30.27ZM361.86-34.56L361.86-34.56Q369.60-34.56 374.46-31.97L374.46-31.97L374.46-31.97Q379.33-29.38 379.33-23.55L379.33-23.55L379.33-10.37L379.33-10.37Q379.33-9.28 379.84-8.58L379.84-8.58L379.84-8.58Q380.35-7.87 381.38-7.87L381.38-7.87L383.68-7.87L383.68-0.51L383.68-0.51Q383.49-0.38 382.69-0.10L382.69-0.10L382.69-0.10Q381.89 0.19 380.42 0.48L380.42 0.48L380.42 0.48Q378.94 0.77 377.02 0.77L377.02 0.77L377.02 0.77Q373.31 0.77 370.91-0.35L370.91-0.35L370.91-0.35Q368.51-1.47 367.62-3.46L367.62-3.46L367.62-3.46Q365.18-1.54 362.18-0.38L362.18-0.38L362.18-0.38Q359.17 0.77 355.14 0.77L355.14 0.77L355.14 0.77Q343.23 0.77 343.23-8.70L343.23-8.70L343.23-8.70Q343.23-13.63 345.89-16.22L345.89-16.22L345.89-16.22Q348.54-18.82 353.54-19.78L353.54-19.78L353.54-19.78Q358.53-20.74 366.59-20.74L366.59-20.74L366.59-22.40L366.59-22.40Q366.59-24.38 365.22-25.41L365.22-25.41L365.22-25.41Q363.84-26.43 361.66-26.43L361.66-26.43L361.66-26.43Q359.68-26.43 358.24-25.73L358.24-25.73L358.24-25.73Q356.80-25.02 356.80-23.49L356.80-23.49L356.80-23.23L344.26-23.23L344.26-23.23Q344.19-23.55 344.19-24.13L344.19-24.13L344.19-24.13Q344.19-28.93 348.77-31.74L348.77-31.74L348.77-31.74Q353.34-34.56 361.86-34.56L361.86-34.56ZM366.59-14.72L366.59-14.72Q361.15-14.72 358.56-13.54L358.56-13.54L358.56-13.54Q355.97-12.35 355.97-10.37L355.97-10.37L355.97-10.37Q355.97-7.17 360.32-7.17L360.32-7.17L360.32-7.17Q362.82-7.17 364.70-8.51L364.70-8.51L364.70-8.51Q366.59-9.86 366.59-11.84L366.59-11.84L366.59-14.72ZM428.54-44.80L428.54-44.80Q436.99-44.80 442.43-41.38L442.43-41.38L442.43-41.38Q447.87-37.95 448-31.23L448-31.23L448-30.46L434.75-30.46L434.75-30.72L434.75-30.72Q434.75-32.64 433.34-33.92L433.34-33.92L433.34-33.92Q431.94-35.20 429.06-35.20L429.06-35.20L429.06-35.20Q426.24-35.20 424.74-34.37L424.74-34.37L424.74-34.37Q423.23-33.54 423.23-32.32L423.23-32.32L423.23-32.32Q423.23-30.59 425.28-29.76L425.28-29.76L425.28-29.76Q427.33-28.93 431.87-28.03L431.87-28.03L431.87-28.03Q437.18-26.94 440.61-25.76L440.61-25.76L440.61-25.76Q444.03-24.58 446.59-21.89L446.59-21.89L446.59-21.89Q449.15-19.20 449.22-14.59L449.22-14.59L449.22-14.59Q449.22-6.78 443.94-3.01L443.94-3.01L443.94-3.01Q438.66 0.77 429.82 0.77L429.82 0.77L429.82 0.77Q419.52 0.77 413.79-2.69L413.79-2.69L413.79-2.69Q408.06-6.14 408.06-14.91L408.06-14.91L421.44-14.91L421.44-14.91Q421.44-11.58 423.17-10.46L423.17-10.46L423.17-10.46Q424.90-9.34 428.54-9.34L428.54-9.34L428.54-9.34Q431.23-9.34 432.99-9.92L432.99-9.92L432.99-9.92Q434.75-10.50 434.75-12.29L434.75-12.29L434.75-12.29Q434.75-13.89 432.80-14.69L432.80-14.69L432.80-14.69Q430.85-15.49 426.43-16.38L426.43-16.38L426.43-16.38Q421.06-17.54 417.54-18.78L417.54-18.78L417.54-18.78Q414.02-20.03 411.39-22.91L411.39-22.91L411.39-22.91Q408.77-25.79 408.77-30.72L408.77-30.72L408.77-30.72Q408.77-37.95 414.37-41.38L414.37-41.38L414.37-41.38Q419.97-44.80 428.54-44.80L428.54-44.80ZM468.54-37.76L455.81-37.76L455.81-46.40L468.54-46.40L468.54-37.76ZM468.54 0L455.81 0L455.81-33.79L468.54-33.79L468.54 0ZM489.86-37.76L477.12-37.76L477.12-46.40L489.86-46.40L489.86-37.76ZM489.86 1.86L489.86 1.86Q489.86 8 487.07 10.72L487.07 10.72L487.07 10.72Q484.29 13.44 478.14 13.44L478.14 13.44L478.14 13.44Q476.48 13.44 474.05 13.12L474.05 13.12L474.05 13.12Q471.62 12.80 470.21 12.29L470.21 12.29L470.21 4.67L473.54 4.67L473.54 4.67Q477.12 4.67 477.12 0.58L477.12 0.58L477.12-33.79L489.86-33.79L489.86 1.86ZM532.93 0L522.50 0L521.66-5.12L521.66-5.12Q519.68-2.37 516.45-0.80L516.45-0.80L516.45-0.80Q513.22 0.77 509.63 0.77L509.63 0.77L509.63 0.77Q503.74 0.77 500.80-2.50L500.80-2.50L500.80-2.50Q497.86-5.76 497.86-11.90L497.86-11.90L497.86-33.79L510.59-33.79L510.59-13.44L510.59-13.44Q510.59-11.26 511.71-9.95L511.71-9.95L511.71-9.95Q512.83-8.64 514.88-8.64L514.88-8.64L514.88-8.64Q517.25-8.64 518.72-10.18L518.72-10.18L518.72-10.18Q520.19-11.71 520.19-13.95L520.19-13.95L520.19-33.79L532.93-33.79L532.93 0Z" fill="url(#editing-outline-gradient)"></path></g></g><style>text {
  font-size: 64px;
  font-family: Arial Black;
  dominant-baseline: central;
  text-anchor: middle;
}</style></svg>