<?xml version="1.0" encoding="utf-8"?>
<!-- Generator: Adobe Illustrator 25.0.0, SVG Export Plug-In . SVG Version: 6.00 Build 0)  -->
<svg version="1.1" id="Layer_1" xmlns="http://www.w3.org/2000/svg" xmlns:xlink="http://www.w3.org/1999/xlink" x="0px" y="0px"
	 viewBox="0 0 500 500" style="enable-background:new 0 0 500 500;" xml:space="preserve">
<style type="text/css">
	.st0{fill:#49021F;}
	.st1{fill:#FF3366;}
</style>
<g id="InDesign" transform="translate(2511 308)">
	<path id="_18" class="st0" d="M-2407.2-270.6h292.3c36.7,0,66.4,29.7,66.4,66.4V88.2c0,36.7-29.7,66.4-66.4,66.4h-292.3
		c-36.7,0-66.4-29.7-66.4-66.4v-292.3C-2473.6-240.9-2443.9-270.6-2407.2-270.6z"/>
	<path id="_34" class="st1" d="M-2322.6-144.8V31.3c0,1.9-0.8,2.8-2.5,2.8h-32.1c-1.5,0-2.2-0.9-2.2-2.8v-176.1
		c0-1.5,0.8-2.2,2.5-2.2h32.1c1.1-0.1,2.1,0.6,2.2,1.7C-2322.5-145.2-2322.5-145-2322.6-144.8L-2322.6-144.8z"/>
	<path id="_35" class="st1" d="M-2218.2,37.9c-12.9,0.2-25.7-2.5-37.5-7.9c-11-5.1-20.1-13.3-26.3-23.7
		c-6.8-12.1-10.1-25.9-9.6-39.8c-0.1-12.9,3.2-25.6,9.6-36.8c6.6-11.4,16.2-20.8,27.8-27c13.6-7.1,28.8-10.6,44.1-10.1
		c0.9,0,2.2,0,3.7,0.1c1.5,0.1,4.8,0.2,6.8,0.4V-160c0-1.3,0.6-2,1.7-2h32.6c0.8-0.1,1.6,0.5,1.7,1.3c0,0.1,0,0.3,0,0.4V3.6
		c0,3.2,0.1,6.7,0.4,10.4c0.3,3.7,0.5,7.1,0.7,10.1c0.1,1.2-0.6,2.3-1.7,2.8c-8.7,3.8-17.8,6.6-27.1,8.4
		C-2200.2,37-2209.2,37.8-2218.2,37.9z M-2199.6,3v-76.7c-2-0.4-4.1-0.7-6.1-0.8c-1.9-0.2-3.8-0.3-5.8-0.3
		c-6.8-0.1-13.6,1.5-19.7,4.5c-13.4,6.4-21.5,20.3-20.5,35.1c-0.1,6.1,0.9,12.2,2.9,18c1.7,4.6,4.4,8.9,7.9,12.4
		c3.3,3.2,7.4,5.6,11.8,7c4.7,1.5,9.6,2.3,14.5,2.2c2.6,0,5.1-0.1,7.3-0.3C-2204.7,4-2202.1,3.6-2199.6,3L-2199.6,3z"/>
</g>
</svg>
